<svg version="1.1" id="Layer_1" xmlns="http://www.w3.org/2000/svg" xmlns:xlink="http://www.w3.org/1999/xlink" x="0px" y="0px"
	 width="100%" viewBox="0 0 300 300" enable-background="new 0 0 300 300" xml:space="preserve">

<path fill="#F9FCFC" opacity="1.000000" stroke="none" 
	d="
M290.973114,124.843834 
	C288.922729,147.007996 282.050568,166.821671 268.338623,184.015518 
	C251.931534,204.588898 230.298309,216.277695 204.732483,220.860214 
	C196.813400,222.279633 188.648270,222.771362 180.586334,222.863922 
	C157.944199,223.123886 135.297150,222.954620 112.326447,222.954620 
	C112.326447,218.709061 112.326447,214.646179 112.326447,210.233170 
	C113.659790,210.163330 115.098854,210.023132 116.537994,210.022232 
	C139.200195,210.008194 161.863388,209.881653 184.524323,210.050446 
	C205.112289,210.203781 223.236389,203.589264 239.947189,191.773209 
	C261.577728,176.478485 272.812805,154.849533 277.788086,129.799606 
	C281.349426,111.868790 279.126617,93.933113 271.631195,77.138580 
	C262.897400,57.569290 249.195648,42.329670 230.437744,31.511747 
	C215.842529,23.094492 200.365341,18.919983 183.606171,18.930670 
	C131.291412,18.964025 78.976624,18.942907 26.289862,18.942907 
	C26.289862,111.470314 26.289862,203.869202 26.289862,296.637573 
	C22.195763,296.637573 18.458368,296.637573 14.366847,296.637573 
	C14.366847,200.191528 14.366847,103.476898 14.366847,6.108698 
	C15.991037,6.108698 17.750925,6.108697 19.510813,6.108698 
	C73.500198,6.108730 127.489632,6.148929 181.478958,6.089550 
	C203.904022,6.064887 224.714081,12.005783 243.223221,24.374012 
	C255.394363,32.507042 265.583252,42.990013 273.891113,55.433346 
	C282.529327,68.371521 288.099091,82.322296 290.290466,97.456108 
	C291.567322,106.273895 290.819305,115.384895 290.973114,124.843834 
z"/>
<path fill="#F9FCFC" opacity="1.000000" stroke="none" 
	d="
M38.991951,42.030128 
	C38.991951,38.556725 38.991951,35.577740 38.991951,32.265224 
	C40.638916,32.176285 42.074886,32.031300 43.510887,32.030960 
	C90.667351,32.019855 137.824203,31.912544 184.980118,32.073532 
	C206.011963,32.145336 224.140427,39.480450 239.685867,54.004120 
	C253.215530,66.644516 261.677277,81.924843 265.484528,99.677368 
	C268.029877,111.545761 266.879822,123.594559 263.792267,135.419067 
	C260.467865,148.150665 254.292450,159.478653 245.898727,169.342163 
	C236.656387,180.202896 225.493561,188.987167 211.410278,192.812561 
	C204.024979,194.818604 196.340179,196.658691 188.754135,196.816238 
	C164.436539,197.321259 140.101898,197.006393 115.773834,197.007919 
	C114.650108,197.007996 113.526375,197.007935 112.203552,197.007935 
	C112.203552,192.880341 112.203552,189.142426 112.203552,184.991959 
	C122.665741,184.991959 132.951447,184.991959 143.237152,184.991959 
	C156.567596,184.991959 169.898666,184.912064 183.228348,185.012711 
	C198.951401,185.131439 213.502350,180.929794 225.925171,171.491547 
	C239.801208,160.949249 248.362167,146.612244 252.022430,129.428375 
	C255.887299,111.283943 253.751541,93.722511 243.644135,78.379791 
	C230.853485,58.963943 213.484222,45.154228 188.779800,44.974709 
	C143.958755,44.649002 99.134109,44.822495 54.310959,44.794853 
	C53.675026,44.794464 53.039032,44.887962 52.068180,44.963799 
	C52.068180,128.848267 52.068180,212.591660 52.068180,296.671265 
	C47.669651,296.671265 43.609886,296.671265 38.991951,296.671265 
	C38.991951,212.021332 38.991951,127.272934 38.991951,42.030128 
z"/>
<path fill="#F8FBFB" opacity="1.000000" stroke="none" 
	d="
M76.962982,98.000015 
	C76.962982,164.460388 76.962982,230.420761 76.962982,296.695038 
	C72.712173,296.695038 68.660210,296.695038 64.355331,296.695038 
	C64.355331,216.928268 64.355331,137.217850 64.355331,57.023567 
	C65.967171,57.023567 67.417007,57.023502 68.866844,57.023575 
	C108.021706,57.025436 147.176590,57.011040 186.331436,57.037720 
	C200.700531,57.047508 212.251572,63.091263 222.586823,72.870422 
	C231.993393,81.770889 238.402756,91.914314 240.231415,104.763878 
	C242.840088,123.094208 239.051422,139.800476 226.540588,153.804932 
	C215.447006,166.222961 201.605057,172.440033 184.579330,172.115906 
	C160.609100,171.659546 136.623718,172.000443 112.321762,172.000443 
	C112.321762,168.108932 112.321762,164.369293 112.321762,159.990829 
	C113.739754,159.990829 115.331589,159.990829 116.923424,159.990829 
	C138.416946,159.990829 159.911972,160.141510 181.403366,159.927994 
	C192.341248,159.819351 202.867722,157.663300 211.828751,150.757187 
	C221.688171,143.158676 227.096313,133.101181 227.957199,120.684067 
	C228.187164,117.367294 227.798309,114.006027 228.053299,110.692879 
	C228.786926,101.160049 224.417862,93.406006 218.786774,86.597878 
	C212.261597,78.708763 204.049423,72.771896 193.585083,70.803528 
	C192.161331,70.535713 190.744553,69.985344 189.323822,69.982925 
	C152.335663,69.920113 115.347420,69.911896 78.359192,69.906441 
	C78.059090,69.906395 77.758957,70.072853 76.962982,70.308159 
	C76.962982,79.278267 76.962982,88.389137 76.962982,98.000015 
z"/>
<path fill="#F7FBFB" opacity="1.000000" stroke="none" 
	d="
M207.769333,92.324249 
	C217.135483,103.725479 218.019257,116.227859 213.180130,129.139694 
	C208.640152,141.253250 202.981888,146.119614 189.578125,146.642624 
	C163.972595,147.641769 138.300400,146.932785 112.326569,146.932785 
	C112.326569,142.758057 112.326569,138.694489 112.326569,134.029480 
	C113.814041,134.029480 115.411858,134.029510 117.009674,134.029480 
	C138.669937,134.029037 160.330399,134.076141 181.990250,133.981277 
	C185.591873,133.965500 189.290894,133.741867 192.769470,132.894257 
	C199.361069,131.288071 202.161758,125.914162 202.833160,119.919548 
	C203.577103,113.277100 204.473358,105.981117 198.496994,100.958878 
	C195.423660,98.376183 191.422882,95.289108 187.795029,95.229256 
	C159.350723,94.759987 130.895233,94.969185 102.075768,94.969185 
	C102.075768,162.332993 102.075768,229.398682 102.075768,296.736938 
	C97.663292,296.736938 93.617455,296.736938 89.363846,296.736938 
	C89.363846,225.268372 89.363846,154.017334 89.363846,82.062218 
	C91.153442,82.062218 92.907280,82.062195 94.661118,82.062210 
	C123.652542,82.062454 152.644379,82.151123 181.635162,82.014641 
	C191.687866,81.967323 200.496429,84.576797 207.769333,92.324249 
z"/>
</svg>